<!-- Generated by IcoMoon.io -->
<svg version="1.1" xmlns="http://www.w3.org/2000/svg" width="24" height="24" viewBox="0 0 24 24">
<title>camera_alt-black-24dp-1</title>
<path fill="#bdbdbd" d="M12 15.2c1.767 0 3.2-1.433 3.2-3.2s-1.433-3.2-3.2-3.2c-1.767 0-3.2 1.433-3.2 3.2s1.433 3.2 3.2 3.2z"></path>
<path fill="#bdbdbd" d="M9 2l-1.83 2h-3.17c-1.1 0-2 0.9-2 2v12c0 1.1 0.9 2 2 2h16c1.1 0 2-0.9 2-2v-12c0-1.1-0.9-2-2-2h-3.17l-1.83-2h-6zM12 17c-2.76 0-5-2.24-5-5s2.24-5 5-5c2.76 0 5 2.24 5 5s-2.24 5-5 5z"></path>
</svg>
