<!-- Generated by IcoMoon.io -->
<svg version="1.1" xmlns="http://www.w3.org/2000/svg" width="24" height="24" viewBox="0 0 24 24">
<title>thumbs-up</title>
<path fill="#ff6c00" d="M13.365 7.6h-0.5c0 0.276 0.224 0.5 0.5 0.5v-0.5zM13.365 4.4v0zM10.773 2v-0.5c-0.192 0-0.368 0.11-0.451 0.284l0.451 0.216zM7.319 9.2l-0.451-0.216c-0.032 0.068-0.049 0.141-0.049 0.216h0.5zM7.319 18h-0.5c0 0.276 0.224 0.5 0.5 0.5v-0.5zM17.061 18l0.005-0.5h-0.005v0.5zM18.789 16.64l-0.493-0.082-0 0.001 0.493 0.081zM19.98 9.44l0.493 0.082 0-0.001-0.494-0.081zM18.253 7.6v0.5l0.005-0-0.005-0.5zM7.319 18v0.5c0.276 0 0.5-0.224 0.5-0.5h-0.5zM7.319 9.2h0.5c0-0.276-0.224-0.5-0.5-0.5v0.5zM13.865 7.6v-3.2h-1v3.2h1zM13.865 4.4c0-1.637-1.421-2.9-3.091-2.9v1c1.192 0 2.091 0.886 2.091 1.9h1zM10.323 1.784l-3.455 7.2 0.902 0.433 3.455-7.2-0.902-0.433zM6.819 9.2v8.8h1v-8.8h-1zM7.319 18.5h9.743v-1h-9.743v1zM17.056 18.5c1.080 0.011 2.052-0.719 2.226-1.779l-0.987-0.162c-0.085 0.518-0.586 0.948-1.229 0.941l-0.011 1zM19.282 16.722l1.192-7.2-0.987-0.163-1.192 7.2 0.987 0.163zM20.474 9.521c0.102-0.623-0.098-1.25-0.533-1.713l-0.729 0.684c0.23 0.245 0.325 0.562 0.275 0.867l0.987 0.162zM19.941 7.808c-0.433-0.461-1.053-0.714-1.693-0.708l0.011 1c0.374-0.004 0.721 0.145 0.953 0.392l0.729-0.684zM18.253 7.1h-4.889v1h4.889v-1zM7.319 17.5h-2.591v1h2.591v-1zM4.727 17.5c-0.715 0-1.227-0.528-1.227-1.1h-1c0 1.195 1.034 2.1 2.227 2.1v-1zM3.5 16.4v-5.6h-1v5.6h1zM3.5 10.8c0-0.572 0.513-1.1 1.227-1.1v-1c-1.193 0-2.227 0.905-2.227 2.1h1zM4.727 9.7h2.591v-1h-2.591v1zM6.819 9.2v8.8h1v-8.8h-1z"></path>
</svg>
